<?xml version="1.0" encoding="UTF-8" standalone="no"?>
<svg
   xmlns:dc="http://purl.org/dc/elements/1.1/"
   xmlns:cc="http://creativecommons.org/ns#"
   xmlns:rdf="http://www.w3.org/1999/02/22-rdf-syntax-ns#"
   xmlns:svg="http://www.w3.org/2000/svg"
   xmlns="http://www.w3.org/2000/svg"
   viewBox="0 0 64 42.666668"
   height="42.666668"
   width="64"
   xml:space="preserve"
   id="svg2"
   version="1.1"><metadata
     id="metadata8"><rdf:RDF><cc:Work
         rdf:about=""><dc:format>image/svg+xml</dc:format><dc:type
           rdf:resource="http://purl.org/dc/dcmitype/StillImage" /></cc:Work></rdf:RDF></metadata><defs
     id="defs6"><clipPath
       id="clipPath20"
       clipPathUnits="userSpaceOnUse"><path
         style="clip-rule:evenodd"
         id="path18"
         d="m 4,32 h 40 c 2.20914,0 4,-1.79086 4,-4 V 4 C 48,1.790861 46.20914,0 44,0 H 4 C 1.790861,0 0,1.790861 0,4 v 24 c 0,2.20914 1.790861,4 4,4 z" /></clipPath><clipPath
       id="clipPath26"
       clipPathUnits="userSpaceOnUse"><path
         id="path24"
         d="M -10,-10 H 58 V 42 H -10 Z" /></clipPath><clipPath
       id="clipPath30"
       clipPathUnits="userSpaceOnUse"><path
         style="clip-rule:evenodd"
         id="path28"
         d="m 4,32 h 40 c 2.20914,0 4,-1.79086 4,-4 V 4 C 48,1.790861 46.20914,0 44,0 H 4 C 1.790861,0 0,1.790861 0,4 v 24 c 0,2.20914 1.790861,4 4,4 z" /></clipPath><clipPath
       id="clipPath34"
       clipPathUnits="userSpaceOnUse"><path
         id="path32"
         d="M 0,0 H 48 V 32 H 0 Z" /></clipPath><clipPath
       id="clipPath38"
       clipPathUnits="userSpaceOnUse"><path
         id="path36"
         d="M 0,0 H 48 V 32 H 0 Z" /></clipPath><clipPath
       id="clipPath68"
       clipPathUnits="userSpaceOnUse"><path
         style="clip-rule:evenodd"
         id="path66"
         d="M 0,26 H 48 V 19 H 0 Z" /></clipPath><clipPath
       id="clipPath78"
       clipPathUnits="userSpaceOnUse"><path
         style="clip-rule:evenodd"
         id="path76"
         d="m 6,13 h 8 c 0.55228,0 1,-0.44772 1,-1 0,-0.55228 -0.44772,-1 -1,-1 H 6 c -0.552285,0 -1,0.44772 -1,1 0,0.55228 0.447715,1 1,1 z" /></clipPath><clipPath
       id="clipPath88"
       clipPathUnits="userSpaceOnUse"><path
         style="clip-rule:evenodd"
         id="path86"
         d="M 6,9 H 23 C 23.55228,9 24,8.552285 24,8 24,7.447715 23.55228,7 23,7 H 6 C 5.447715,7 5,7.447715 5,8 5,8.552285 5.447715,9 6,9 Z" /></clipPath></defs><g
     transform="matrix(1.3333333,0,0,-1.3333333,0,42.666667)"
     id="g10"><g
       id="g12" /><g
       id="g14"><g
         clip-path="url(#clipPath20)"
         id="g16"><g
           id="g22" /><g
           id="g60"><g
             id="g58"
             clip-path="url(#clipPath26)"><g
               id="g40" /><g
               id="g48"><g
                 id="g46"
                 clip-path="url(#clipPath30)"><g
                   id="g44"
                   clip-path="url(#clipPath34)"><path
                     id="path42"
                     style="fill:#ffffff;fill-opacity:1;fill-rule:nonzero;stroke:none"
                     d="m 4,32 h 40 c 2.20914,0 4,-1.79086 4,-4 V 4 C 48,1.790861 46.20914,0 44,0 H 4 C 1.790861,0 0,1.790861 0,4 v 24 c 0,2.20914 1.790861,4 4,4 z" /></g></g></g><g
               id="g56"><g
                 id="g54"
                 clip-path="url(#clipPath38)"><g
                   id="g52"
                   transform="matrix(1,0,0,-1,0,32)"><path
                     id="path50"
                     style="fill:none;stroke:#333533;stroke-width:2;stroke-linecap:butt;stroke-linejoin:miter;stroke-miterlimit:10;stroke-dasharray:none;stroke-opacity:1"
                     d="m 4,0 h 40 c 2.20914,0 4,1.790861 4,4 v 24 c 0,2.20914 -1.79086,4 -4,4 H 4 C 1.790861,32 0,30.20914 0,28 V 4 C 0,1.790861 1.790861,0 4,0 Z" /></g></g></g></g></g></g></g><g
       id="g62"><g
         clip-path="url(#clipPath68)"
         id="g64"><path
           id="path70"
           style="fill:#333533;fill-opacity:1;fill-rule:nonzero;stroke:none"
           d="M -5,31 H 53 V 14 H -5 Z" /></g></g><g
       id="g72"><g
         clip-path="url(#clipPath78)"
         id="g74"><path
           id="path80"
           style="fill:#333533;fill-opacity:1;fill-rule:nonzero;stroke:none"
           d="M 0,18 H 20 V 6 H 0 Z" /></g></g><g
       id="g82"><g
         clip-path="url(#clipPath88)"
         id="g84"><path
           id="path90"
           style="fill:#333533;fill-opacity:1;fill-rule:nonzero;stroke:none"
           d="M 0,14 H 29 V 2 H 0 Z" /></g></g></g></svg>